PathFileType	3	(X/Y/Z)	F:\ViconData\AntennenMessung\Messung1\Session1\ID20.trc
DataRate	CameraRate	NumFrames	NumMarkers	Units	OrigDataRate	OrigDataStartFrame	OrigNumFrames
120.0	120.0	4	70	mm	120.0	519	1036	
Frame#	Time	Ashort			Along			Atop			A4			Bshort			Blong			Btop			B4			Cshort			Clong			Ctop			C4			Dshort			Dlong			Dtop			D4			Eshort			Elong			Etop			E4			Fshort			Flong			Ftop			F4			Gshort			Glong			Gtop			G4			Hshort			Hlong			Htop			H4			I1			I2			I3			I4			I5			WandAshort			WandAlong			WandAtop			WandA4			WandA15			WandBshort			WandB4			WandB5			WandBtop			WandBlong			WandCshort			WandClong			WandCtop			WandC4			WandC5			Acenter			Aantenna			Bcenter			Bantenna			Ccenter			Cantenna			Dcenter			Dantenna			Ecenter			Eantenna			Fcenter			Fantenna			Gcenter			Gantenna			Hcenter			Hantenna			Icenter			Iantenna			
		X1	Y1	Z1	X2	Y2	Z2	X3	Y3	Z3	X4	Y4	Z4	X5	Y5	Z5	X6	Y6	Z6	X7	Y7	Z7	X8	Y8	Z8	X9	Y9	Z9	X10	Y10	Z10	X11	Y11	Z11	X12	Y12	Z12	X13	Y13	Z13	X14	Y14	Z14	X15	Y15	Z15	X16	Y16	Z16	X17	Y17	Z17	X18	Y18	Z18	X19	Y19	Z19	X20	Y20	Z20	X21	Y21	Z21	X22	Y22	Z22	X23	Y23	Z23	X24	Y24	Z24	X25	Y25	Z25	X26	Y26	Z26	X27	Y27	Z27	X28	Y28	Z28	X29	Y29	Z29	X30	Y30	Z30	X31	Y31	Z31	X32	Y32	Z32	X33	Y33	Z33	X34	Y34	Z34	X35	Y35	Z35	X36	Y36	Z36	X37	Y37	Z37	X38	Y38	Z38	X39	Y39	Z39	X40	Y40	Z40	X41	Y41	Z41	X42	Y42	Z42	X43	Y43	Z43	X44	Y44	Z44	X45	Y45	Z45	X46	Y46	Z46	X47	Y47	Z47	X48	Y48	Z48	X49	Y49	Z49	X50	Y50	Z50	X51	Y51	Z51	X52	Y52	Z52	X53	Y53	Z53	X54	Y54	Z54	X55	Y55	Z55	X56	Y56	Z56	X57	Y57	Z57	X58	Y58	Z58	X59	Y59	Z59	X60	Y60	Z60	X61	Y61	Z61	X62	Y62	Z62	X63	Y63	Z63	X64	Y64	Z64	X65	Y65	Z65	X66	Y66	Z66	X67	Y67	Z67	X68	Y68	Z68	X69	Y69	Z69	X70	Y70	Z70	
519	4.3166667	-1038.2316	214.52074	-1644.2017	-1109.385	204.20552	-1599.3325	-1063.8345	173.08971	-1625.6558	-1054.24	262.33185	-1635.0223	-1352.9587	234.92776	1003.636	-1281.2627	227.01117	1052.4141	-1322.7079	193.96655	1020.9581	-1284.772	287.81522	1052.8593	813.92908	187.65935	1209.6332	892.83862	179.01645	1178.7589	844.33795	145.53902	1198.2994	860.97797	292.48114	1168.2957	1115.6747	209.54158	-1401.6133	1056.0625	193.95847	-1460.4015	1095.0894	162.60184	-1423.9518	1069.8795	238.65787	-1425.8427	-1204.5255	1685.9036	-1563.1631	-1129.1521	1688.2782	-1606.0214	-1173.1743	1724.2859	-1581.9175	-1134.0778	1580.9565	-1603.8593	-1239.7102	1699.1644	1119.5449	-1309.2648	1698.6412	1071.9431	-1270.3872	1736.261	1096.9371	-1245.4685	1592.7899	1110.7812	988.90063	1664.2634	1162.2734	955.75854	1702.2617	1181.0321	922.93268	1661.8885	1215.1555	939.78198	1659.4353	1159.95	998.92029	1668.4789	-1579.5159	1058.6294	1669.9612	-1518.6874	1024.8992	1708.0513	-1551.1619	1059.1697	1672.149	-1585.4968	-113.45067	159.95961	-224.03682	-29.207937	168.74689	-221.15654	-72.222656	127.02085	-224.67355	-75.77774	164.99187	-254.83945	-78.449539	163.27228	-175.44269																																														-1068.756	210.09555	-1624.9529	-1073.8967	248.74831	-1624.2191	-1321.3948	231.4425	1025.1102	-1320.0375	270.18182	1029.4025	847.79504	183.95003	1196.3827	851.28687	222.74512	1194.4468	1088.7816	202.51151	-1428.1345	1082.7256	240.82857	-1432.1505	-1171.8862	1686.9318	-1581.722	-1170.5424	1647.9554	-1581.5182	-1270.9478	1698.9293	1098.1666	-1271.533	1659.955	1099.4501	953.53784	1704.8077	1182.2889	972.75214	1731.7531	1161.6549	1026.3168	1669.1589	-1551.6057	1027.7374	1630.1874	-1552.0503	-76.129929	163.85249	-222.7608	-80.238663	202.58327	-220.74944
520	4.325	-1038.2356	214.55022	-1644.2303	-1109.3783	204.14319	-1599.3218	-1063.8512	173.02351	-1625.6538	-1054.2201	262.31363	-1635.0355	-1352.9617	234.90248	1003.5405	-1281.3182	227.07605	1052.5055	-1322.7499	193.93872	1020.9384	-1284.7478	287.81775	1052.8127	813.96521	187.60786	1209.5931	892.87115	179.02429	1178.6871	844.67133	145.18951	1198.4238	860.87195	292.47998	1168.4009	1115.6704	209.53938	-1401.6113	1056.0618	193.92641	-1460.3737	1095.1016	162.71948	-1424.0449	1069.8085	238.56233	-1425.8595	-1204.514	1685.9207	-1563.1685	-1129.151	1688.3164	-1606.0436	-1173.1759	1724.3087	-1581.9165	-1134.0673	1580.9785	-1603.8878	-1240.5878	1698.7234	1118.5273	-1309.1171	1698.4458	1071.891	-1270.3882	1736.2566	1096.9469	-1245.4745	1592.7657	1110.7797	988.86267	1664.2574	1162.2559	955.85449	1702.5012	1181.1508	922.93433	1661.9316	1215.1399	939.77411	1659.4351	1159.9471	998.92627	1668.4749	-1579.506	1058.6396	1669.969	-1518.6759	1024.8824	1708.0455	-1551.1534	1059.1686	1672.1494	-1585.4952	-113.41927	159.92722	-224.00896	-29.207472	168.70114	-221.13399	-72.236244	127.00811	-224.6692	-75.808922	164.96217	-254.80458	-78.48204	163.25662	-175.46231																																														-1068.8135	210.07715	-1624.9281	-1073.9891	248.72478	-1624.1711	-1321.47	231.4623	1025.0635	-1320.1486	270.20648	1029.3229	848.03113	183.90208	1196.2501	851.39795	222.69537	1194.0718	1088.7408	202.48587	-1428.1584	1082.6129	240.79701	-1432.1213	-1171.8837	1686.9579	-1581.7322	-1170.5353	1647.9817	-1581.5399	-1270.8885	1698.6007	1097.9066	-1271.4066	1659.6167	1098.9	953.84253	1704.8322	1182.3025	973.20917	1731.713	1161.7271	1026.3152	1669.1602	-1551.6047	1027.7512	1630.1892	-1552.0573	-76.136749	163.81165	-222.73613	-80.241432	202.54166	-220.7019
521	4.3333333	-1038.2396	214.478	-1644.1748	-1109.3811	204.15047	-1599.3372	-1063.7996	173.04875	-1625.6615	-1054.2318	262.29568	-1635.0089	-1352.9828	234.72139	1003.6993	-1281.3468	227.05957	1052.5557	-1322.7498	193.97858	1020.8824	-1284.7444	287.86328	1052.8184	813.92804	187.66399	1209.6886	892.72369	179.29094	1178.6948	844.39551	145.47749	1198.443	860.91205	292.59341	1168.3772	1115.6633	209.54408	-1401.6196	1056.0468	193.93326	-1460.3489	1095.1011	162.6369	-1424.0022	1069.8516	238.59225	-1425.8314	-1204.5792	1685.9829	-1563.0328	-1129.1796	1688.2655	-1605.9821	-1173.1747	1724.29	-1581.9169	-1134.0741	1580.9653	-1603.8728	-1240.5698	1698.7561	1118.4595	-1309.2426	1698.5978	1071.931	-1270.3984	1736.2769	1096.9451	-1245.4435	1592.6836	1110.7607	988.85358	1664.2264	1162.2574	955.81067	1702.3762	1181.1074	922.90369	1662.0706	1215.2421	939.79541	1659.4484	1159.9272	998.9281	1668.4744	-1579.4972	1058.6399	1669.9609	-1518.6769	1024.8875	1708.0492	-1551.1608	1059.1807	1672.1436	-1585.5044	-113.41827	159.94096	-224.0076	-29.190388	168.72742	-221.13072	-72.190666	127.01678	-224.68904	-75.785553	165.00342	-254.83435	-78.484093	163.25803	-175.45897																																														-1068.7283	210.05196	-1624.9587	-1073.8768	248.70367	-1624.2249	-1321.6198	231.36696	1025.089	-1320.4491	270.10495	1029.4476	847.69592	184.0757	1196.4061	851.01404	222.88031	1194.3585	1088.7413	202.49448	-1428.1407	1082.6282	240.8064	-1432.119	-1171.8936	1686.9724	-1581.6512	-1170.5555	1647.9963	-1581.3737	-1270.9447	1698.686	1097.8792	-1271.5112	1659.702	1098.8481	953.61212	1704.9144	1182.3615	972.88934	1731.8096	1161.7207	1026.3101	1669.156	-1551.6068	1027.7356	1630.1847	-1552.0537	-76.098167	163.83409	-222.73288	-80.208481	202.56227	-220.67523
522	4.3416667	-1038.2207	214.58153	-1644.2349	-1109.3868	204.1266	-1599.2897	-1063.827	173.05238	-1625.6532	-1054.2021	262.28821	-1635.0024	-1353.0424	234.80579	1003.7101	-1281.3345	227.03149	1052.5154	-1322.6956	193.94994	1020.9472	-1284.6438	287.85837	1052.8152	813.97998	187.69618	1209.5515	892.04425	178.32585	1179.3616	844.39709	145.51973	1198.3676	860.94299	292.4805	1168.4363	1115.6888	209.8188	-1401.8036	1056.0709	193.88548	-1460.333	1095.0414	162.41766	-1423.9102	1069.8198	238.53569	-1425.8086	-1204.5172	1685.9092	-1563.1732	-1129.1447	1688.2859	-1606.0173	-1173.2064	1724.2263	-1581.8402	-1134.0684	1580.9641	-1603.8651	-1239.6895	1699.1377	1119.5417	-1309.303	1698.6996	1071.9692	-1270.3793	1736.2542	1096.9385	-1245.3799	1592.5674	1110.7135	988.85992	1664.2368	1162.2657	955.87787	1702.2911	1181.1411	922.85669	1661.9589	1215.1787	939.76117	1659.4249	1159.9319	998.90729	1668.4812	-1579.5325	1058.7695	1670.1477	-1518.6707	1024.8845	1708.0454	-1551.1635	1059.1655	1672.1456	-1585.4911	-113.40768	159.96526	-224.00958	-29.193319	168.73753	-221.13115	-72.250961	126.9946	-224.68204	-75.770981	164.96579	-254.81233	-78.469215	163.27162	-175.45047																																														-1068.8046	210.08847	-1624.9194	-1073.9984	248.73349	-1624.1538	-1321.5112	231.3873	1025.1705	-1320.2858	270.12234	1029.5403	848.17743	183.59132	1196.3262	852.02563	222.34534	1194.2482	1088.6559	202.59406	-1428.3429	1082.5702	240.88394	-1432.5676	-1171.9443	1686.9362	-1581.6885	-1170.6254	1647.9587	-1581.5302	-1270.9786	1698.9407	1098.1593	-1271.6047	1659.9666	1099.4343	953.63397	1704.8799	1182.4253	972.94806	1731.8148	1161.871	1026.3945	1669.2463	-1551.5863	1027.911	1630.2782	-1552.011	-76.15609	163.8456	-222.73633	-80.260269	202.5751	-220.69144
